
<svg xmlns="http://www.w3.org/2000/svg" version="1.1" xmlns:xlink="http://www.w3.org/1999/xlink" preserveAspectRatio="none" x="0px" y="0px" width="221px" height="174px" viewBox="0 0 221 174">
<defs>
<filter id="Filter_1" x="-20%" y="-20%" width="140%" height="140%" color-interpolation-filters="sRGB">
<feColorMatrix in="SourceGraphic" type="matrix" values="1 0 0 0 0 0 1 0 0 0 0 0 1 0 0 0 0 0 0.68 0" result="result1"/>
</filter>

<g id="blue_0_Layer3_0_FILL">
<path fill="#3399FF" stroke="none" d="
M -48.6 -67.7
Q -66.6 -50.45 -66.6 -26 -66.6 -8 -56.8 6.1 -55.35 8.2 -53.65 10.3 -54.45 10.75 -55.4 11.1 -58.4 12.3 -61.45 12.3 -64.25 12.3 -67.4 11.15 -67.45 11.1 -73.35 8.55 -81.9 4.8 -91.7 4.8 -100.15 4.8 -105.3 10.05 -109.55 14.35 -109.55 19.15 -109.55 28.45 -103.05 33.3 -98.35 36.8 -93.05 36.8 -89.25 36.8 -86.4 34.75 -85.05 33.8 -81.85 30.3 -75.9 23.8 -67.7 23.8 -61 23.8 -56.8 28.55 -53.05 32.85 -53.05 38.55 -53.05 46.4 -62.8 51.55 -69.45 53.1 -72.9 54.35 -79.05 56.55 -81.55 61.65 -84.25 67.1 -77.15 73.85 -71.85 78.85 -62.8 83.3 -56.6 86.05 -49.3 86.05 -40.75 86.05 -38.55 81.05 -37.8 79.3 -37.8 72.9 -37.8 66.2 -40.55 58.2 -43.3 50.2 -43.3 49.55 -43.3 42.5 -37.3 41.3 -26.85 39.05 -19.05 39.05 -5.05 39.05 -5.05 53.9 -5.05 56.25 -10.9 64 -16.8 71.75 -16.8 77.05 -16.8 81.6 -11.8 83.3 -8.15 84.55 -0.3 84.55 8.95 84.55 14.7 81.3 21.7 77.35 21.7 69.3 21.7 63.75 17.2 58.9 12.7 54.05 12.7 50.8 12.7 48.3 15.65 45.35 17.75 43.25 19.2 42.55 19.35 42.5 30.25 38.1 43.1 31.8 56.25 37.3 59.35 38.65 62.05 42.85 63.25 44.75 66.35 51.15 68.9 56.4 70.8 58.65 73.6 61.85 77.15 61.75 90.95 61.4 102.55 49.45 113.65 38 107.1 22.45 102.2 10.8 90.85 8.05 85.05 6.65 79.7 9.75 68.8 15.85 57.05 17.35 50.4 18.4 46.6 12.75 45.45 11.05 44.25 9.4 47.55 5.25 49.95 0.85 56.4 -11.3 56.4 -26 56.4 -50.45 38.4 -67.7 20.4 -85 -5.1 -85 -30.6 -85 -48.6 -67.7 Z"/>
</g>

<g id="blue_0_Layer2_0_FILL">
<path fill="#000000" stroke="none" d="
M -50 -69.15
Q -68.6 -51.25 -68.6 -26 -68.6 -7.4 -58.45 7.25 -57.2 9.05 -55.8 10.8
L -55.75 10.85
Q -55.55 10.95 -55.3 11.1 -53.6 12 -51.05 13.5 -50.75 13.7 -50.45 13.85 -54.05 10.1 -56.8 6.1 -66.6 -8 -66.6 -26 -66.6 -50.45 -48.6 -67.7 -30.6 -85 -5.1 -85 20.4 -85 38.4 -67.7 56.4 -50.45 56.4 -26 56.4 -11.3 49.95 0.85 47.55 5.3 44.25 9.4 41.6 12.65 38.4 15.7 38.15 15.95 37.9 16.2
L 40.05 14.75
Q 40.85 14.2 42.4 13 43.8 11.95 44.9 11.4 45.1 11.25 45.3 11.2 45.35 11.1 45.45 11.05 49.05 6.6 51.7 1.8 58.4 -10.8 58.4 -26 58.4 -51.25 39.8 -69.15 21.2 -87 -5.1 -87 -31.4 -87 -50 -69.15 Z"/>
</g>

<g id="mouth_0_Layer0_0_FILL">
<path fill="#FFFFFF" stroke="none" d="
M -31.05 7.05
L -30.55 14.1
Q -22.7 18.15 -13.2 19.8
L -13.05 13
Q -22.95 11.35 -31.05 7.05
M -12.75 -1.45
Q -23.5 -3.2 -32.2 -8.1
L -31.05 7.05
Q -22.95 11.35 -13.05 13
L -12.75 -1.45
M -46.15 -20.8
Q -49 -15.85 -49 -10.15 -49 2.7 -34.65 11.75 -32.65 13 -30.55 14.1
L -31.05 7.05
Q -32.9 6.05 -34.65 4.95 -42.65 -0.1 -48.65 -9.3 -42.65 -0.1 -34.65 4.95 -32.9 6.05 -31.05 7.05
L -32.2 -8.1
Q -33.45 -8.8 -34.65 -9.55 -42.65 -14.6 -46.15 -20.8
M 6.5 20.6
L 6.5 13.8
Q 3.35 14.05 0 14.05 -6.85 14.05 -13.05 13
L -13.2 19.8
Q -6.95 20.85 0 20.85 3.35 20.85 6.5 20.6
M 24.1 16.95
L 23.95 10.2
Q 15.95 13.05 6.5 13.8
L 6.5 20.6
Q 16 19.85 24.1 16.95
M 35 4.75
L 35.65 11.1
Q 48.65 2.5 49 -9.5 42.65 -0.2 35 4.75
M 35 4.75
Q 34.8 4.85 34.65 4.95 29.65 8.1 23.95 10.2
L 24.1 16.95
Q 29.7 14.9 34.65 11.75 35.15 11.45 35.65 11.1
L 35 4.75
M 23.7 -4.2
Q 15.75 -1.4 6.5 -0.7
L 6.5 13.8
Q 15.95 13.05 23.95 10.2
L 23.7 -4.2
M 33.6 -8.9
Q 28.95 -6.1 23.7 -4.2
L 23.95 10.2
Q 29.65 8.1 34.65 4.95 34.8 4.85 35 4.75
L 33.6 -8.9
M 34.65 -9.55
Q 34.15 -9.2 33.6 -8.9
L 35 4.75
Q 42.65 -0.2 49 -9.5 49 -9.65 49 -9.8 49 -9.95 49 -10.15 49 -15.85 46.2 -20.8 42.65 -14.6 34.65 -9.55
M 6.5 -0.7
Q 3.35 -0.45 0 -0.45 -6.7 -0.45 -12.75 -1.45
L -13.05 13
Q -6.85 14.05 0 14.05 3.35 14.05 6.5 13.8
L 6.5 -0.7 Z"/>
</g>

<g id="eye_0_Layer0_0_FILL">
<path fill="#FFFFFF" stroke="none" d="
M 10.4 -7.25
Q 6.1 -10.25 0 -10.25 -6.1 -10.25 -10.45 -7.25 -14.75 -4.25 -14.75 0 -14.75 4.25 -10.45 7.25 -6.1 10.25 0 10.25 6.1 10.25 10.4 7.25 14.75 4.25 14.75 0 14.75 -4.25 10.4 -7.25
M 6.9 5.95
Q 5.6 6.75 3.75 6.75 1.9 6.75 0.55 5.95 -0.75 5.15 -0.75 4 -0.75 2.85 0.55 2.05 1.9 1.25 3.75 1.25 5.6 1.25 6.9 2.05 8.25 2.85 8.25 4 8.25 5.15 6.9 5.95 Z"/>

<path fill="#000000" stroke="none" d="
M 3.75 6.75
Q 5.6 6.75 6.9 5.95 8.25 5.15 8.25 4 8.25 2.85 6.9 2.05 5.6 1.25 3.75 1.25 1.9 1.25 0.55 2.05 -0.75 2.85 -0.75 4 -0.75 5.15 0.55 5.95 1.9 6.75 3.75 6.75 Z"/>
</g>

<g id="highlights_0_Layer0_0_FILL">
<path fill="#FFFFFF" fill-opacity="0.8666666666666667" stroke="none" d="
M 7.75 80.05
Q 11 80.05 13.3 78.1 15.65 76.15 15.65 73.4 15.65 70.9 13.75 69.1 10.9 77.5 1.35 77.35 1.7 77.75 2.15 78.1 4.5 80.05 7.75 80.05
M 95.9 15.35
Q 90.9 11.7 87.1 12.6 83.25 13.5 80.75 15.7 78.95 17.3 78.45 19.4 85.25 17.1 90 16.8 94.45 16.95 102.6 22.85 99.05 17.65 95.9 15.35
M -100.4 11.7
Q -102.6 13.1 -102.6 15.05 -102.6 16.95 -100.5 18.35 -96.5 12.35 -88 13.5 -88.55 12.5 -89.8 11.7 -92 10.3 -95.1 10.3 -98.2 10.3 -100.4 11.7
M -77.65 62.75
Q -79.35 65.3 -78.55 67.9 -77.85 70.3 -75.55 71.5 -75.15 62.65 -66 60.1 -66.45 59.8 -66.95 59.55 -69.75 58.4 -72.9 59.3 -76 60.25 -77.65 62.75
M 30.65 -56
Q 22.9 -71.05 24.95 -72.2 27 -73.35 17.6 -76.65 8.2 -80 -1.45 -80 -11.1 -80 -17.9 -76.85 -22.45 -74.75 -23.95 -72 6.95 -79.9 30.65 -56 Z"/>
</g>

<path id="blue_0_Layer2_0_1_STROKES" stroke="#000000" stroke-width="2" stroke-linejoin="round" stroke-linecap="butt" fill="none" d="
M -55.3 11.1
Q -55.35 11.1 -55.4 11.1 -58.4 12.3 -61.45 12.3 -64.25 12.3 -67.4 11.15 -67.45 11.1 -73.35 8.55 -81.9 4.8 -91.7 4.8 -100.15 4.8 -105.3 10.05 -109.55 14.35 -109.55 19.15 -109.55 28.45 -103.05 33.3 -98.35 36.8 -93.05 36.8 -89.25 36.8 -86.4 34.75 -85.05 33.8 -81.85 30.3 -75.9 23.8 -67.7 23.8 -61 23.8 -56.8 28.55 -53.05 32.85 -53.05 38.55 -53.05 46.4 -62.8 51.55 -69.45 53.1 -72.9 54.35 -79.05 56.55 -81.55 61.65 -84.25 67.1 -77.15 73.85 -71.85 78.85 -62.8 83.3 -56.6 86.05 -49.3 86.05 -40.75 86.05 -38.55 81.05 -37.8 79.3 -37.8 72.9 -37.8 66.2 -40.55 58.2 -43.3 50.2 -43.3 49.55 -43.3 42.5 -37.3 41.3 -26.85 39.05 -19.05 39.05 -5.05 39.05 -5.05 53.9 -5.05 56.25 -10.9 64 -16.8 71.75 -16.8 77.05 -16.8 81.6 -11.8 83.3 -8.15 84.55 -0.3 84.55 8.95 84.55 14.7 81.3 21.7 77.35 21.7 69.3 21.7 63.75 17.2 58.9 12.7 54.05 12.7 50.8 12.7 48.3 15.65 45.35 17.75 43.25 19.2 42.55 19.35 42.5 30.25 38.1 43.1 31.8 56.25 37.3 59.35 38.65 62.05 42.85 63.25 44.75 66.35 51.15 68.9 56.4 70.8 58.65 73.6 61.85 77.15 61.75 90.95 61.4 102.55 49.45 113.65 38 107.1 22.45 102.2 10.8 90.85 8.05 85.05 6.65 79.7 9.75 68.8 15.85 57.05 17.35 50.4 18.4 46.6 12.75 46 11.9 45.45 11.05"/>

<path id="mouth_0_Layer0_0_1_STROKES" stroke="#000000" stroke-width="2" stroke-linejoin="miter" stroke-linecap="square" stroke-miterlimit="3" fill="none" d="
M 6.5 -0.7
Q 3.35 -0.45 0 -0.45 -6.7 -0.45 -12.75 -1.45
L -13.05 13
Q -6.85 14.05 0 14.05 3.35 14.05 6.5 13.8
L 6.5 -0.7
Q 15.75 -1.4 23.7 -4.2 28.95 -6.1 33.6 -8.9 34.15 -9.2 34.65 -9.55 42.65 -14.6 46.2 -20.8 49 -15.85 49 -10.15 49 -9.95 49 -9.8 49 -9.65 49 -9.5 48.65 2.5 35.65 11.1 35.15 11.45 34.65 11.75 29.7 14.9 24.1 16.95 16 19.85 6.5 20.6 3.35 20.85 0 20.85 -6.95 20.85 -13.2 19.8 -22.7 18.15 -30.55 14.1 -32.65 13 -34.65 11.75 -49 2.7 -49 -10.15 -49 -15.85 -46.15 -20.8 -42.65 -14.6 -34.65 -9.55 -33.45 -8.8 -32.2 -8.1 -23.5 -3.2 -12.75 -1.45
M 35 4.75
Q 34.8 4.85 34.65 4.95 29.65 8.1 23.95 10.2 15.95 13.05 6.5 13.8
M 23.7 -4.2
L 23.95 10.2
M -13.05 13
Q -22.95 11.35 -31.05 7.05 -32.9 6.05 -34.65 4.95 -42.65 -0.1 -48.65 -9.3"/>

<path id="mouth_0_Layer0_0_2_STROKES" stroke="#000000" stroke-width="2" stroke-linejoin="miter" stroke-linecap="butt" stroke-miterlimit="3" fill="none" d="
M 23.95 10.2
L 24.1 16.95
M 49 -9.5
Q 42.65 -0.2 35 4.75
L 35.65 11.1
M 6.5 13.8
L 6.5 20.6
M 33.6 -8.9
L 35 4.75
M -31.05 7.05
L -30.55 14.1
M -13.05 13
L -13.2 19.8
M -32.2 -8.1
L -31.05 7.05"/>

<path id="eye_0_Layer0_0_1_STROKES" stroke="#000000" stroke-width="2" stroke-linejoin="round" stroke-linecap="butt" fill="none" d="
M 14.75 0
Q 14.75 4.25 10.4 7.25 6.1 10.25 0 10.25 -6.1 10.25 -10.45 7.25 -14.75 4.25 -14.75 0 -14.75 -4.25 -10.45 -7.25 -6.1 -10.25 0 -10.25 6.1 -10.25 10.4 -7.25 14.75 -4.25 14.75 0 Z"/>

<path id="eye_0_Layer0_0_2_STROKES" stroke="#FFFFFF" stroke-width="2" stroke-linejoin="round" stroke-linecap="butt" fill="none" d="
M 8.25 4
Q 8.25 5.15 6.9 5.95 5.6 6.75 3.75 6.75 1.9 6.75 0.55 5.95 -0.75 5.15 -0.75 4 -0.75 2.85 0.55 2.05 1.9 1.25 3.75 1.25 5.6 1.25 6.9 2.05 8.25 2.85 8.25 4 Z"/>
</defs>

<g transform="matrix( 1, 0, 0, 1, 110.3,87.25) ">
<g transform="matrix( 1, 0, 0, 1, 0,0) ">
<use xlink:href="#blue_0_Layer3_0_FILL"/>
</g>

<g transform="matrix( 1, 0, 0, 1, 0,0) ">
<use xlink:href="#blue_0_Layer2_0_FILL"/>

<use xlink:href="#blue_0_Layer2_0_1_STROKES"/>
</g>

<g transform="matrix( 1, 0, 0, 1, -5.85,-2.85) ">
<g transform="matrix( 1, 0, 0, 1, 0,0) ">
<use xlink:href="#mouth_0_Layer0_0_FILL"/>

<use xlink:href="#mouth_0_Layer0_0_1_STROKES"/>

<use xlink:href="#mouth_0_Layer0_0_2_STROKES"/>
</g>
</g>

<g transform="matrix( 1, 0, 0, 1, -26.35,-39.9) ">
<g transform="matrix( 1, 0, 0, 1, 0,0) ">
<use xlink:href="#eye_0_Layer0_0_FILL"/>

<use xlink:href="#eye_0_Layer0_0_1_STROKES"/>

<use xlink:href="#eye_0_Layer0_0_2_STROKES"/>
</g>
</g>

<g transform="matrix( -1, 0, 0, 1, 10.1,-39.9) ">
<g transform="matrix( 1, 0, 0, 1, 0,0) ">
<use xlink:href="#eye_0_Layer0_0_FILL"/>

<use xlink:href="#eye_0_Layer0_0_1_STROKES"/>

<use xlink:href="#eye_0_Layer0_0_2_STROKES"/>
</g>
</g>

<g transform="matrix( 1, 0, 0, 1, 0.6,-1.5) ">
<g transform="matrix( 1, 0, 0, 1, 0,0) ">
<use filter="url(#Filter_1)" xlink:href="#highlights_0_Layer0_0_FILL"/>
</g>
</g>
</g>
</svg>
