
<svg xmlns="http://www.w3.org/2000/svg" version="1.1" xmlns:xlink="http://www.w3.org/1999/xlink" preserveAspectRatio="none" x="0px" y="0px" width="221px" height="174px" viewBox="0 0 221 174">
<defs>
<g id="Layer2_0_FILL">
<path fill="#59DF59" stroke="none" d="
M 201.4 95.05
Q 195.6 93.65 190.25 96.75 179.35 102.85 167.6 104.35 160.95 105.4 157.15 99.75 149.4 88.15 138.3 79.45 126.5 70.2 111.65 68.4 97.45 66.55 83.65 70.95 72.05 74.75 65.95 84.4 62.6 89.65 59 94.8
L 59.5 95.35
Q 60.2 94.65 60.75 93.8 60.2 94.65 59.5 95.35 57.8 97.05 55.15 98.1 52.15 99.3 49.1 99.3 46.3 99.3 43.15 98.15 43.1 98.1 37.2 95.55 28.65 91.8 18.85 91.8 10.4 91.8 5.25 97.05 1 101.35 1 106.15 1 115.45 7.5 120.3 12.2 123.8 17.5 123.8 21.3 123.8 24.15 121.75 25.5 120.8 28.7 117.3 34.65 110.8 42.85 110.8 49.55 110.8 53.75 115.55 57.5 119.85 57.5 125.55 57.5 133.4 47.75 138.55 41.1 140.1 37.65 141.35 31.5 143.55 29 148.65 26.3 154.1 33.4 160.85 38.7 165.85 47.75 170.3 53.95 173.05 61.25 173.05 69.8 173.05 72 168.05 72.75 166.3 72.75 159.9 72.75 153.2 70 145.2 67.25 137.2 67.25 136.55 67.25 129.5 73.25 128.3 83.7 126.05 91.5 126.05 105.5 126.05 105.5 140.9 105.5 143.25 99.65 151 93.75 158.75 93.75 164.05 93.75 168.6 98.75 170.3 102.4 171.55 110.25 171.55 119.5 171.55 125.25 168.3 132.25 164.35 132.25 156.3 132.25 150.75 127.75 145.9 123.25 141.05 123.25 137.8 123.25 135.3 126.2 132.35 128.3 130.25 129.75 129.55 129.9 129.5 140.8 125.1 153.65 118.8 166.8 124.3 169.9 125.65 172.6 129.85 173.8 131.75 176.9 138.15 179.45 143.4 181.35 145.65 184.15 148.85 187.7 148.75 201.5 148.4 213.1 136.45 224.2 125 217.65 109.45 212.75 97.8 201.4 95.05 Z"/>
</g>

<g id="Layer1_0_FILL">
<path fill="#59DF59" stroke="none" d="
M 148.95 19.3
Q 130.95 2 105.45 2 79.95 2 61.95 19.3 43.95 36.55 43.95 61 43.95 79 53.75 93.1 56.5 97.1 60.1 100.85 61 101.75 61.95 102.7
L 61.25 103.4
Q 61.3 103.45 61.35 103.5 62.3 104.4 63.3 105.3 63.85 105.8 64.45 106.3 64.9 106.7 65.35 107.05 74.9 114.85 86.35 118.3 95.3 121 105.45 121 115.6 121 124.6 118.3 135.85 114.9 145.35 107.25
L 144.65 106.55
Q 144.75 106.45 144.85 106.35 144.9 106.3 144.95 106.25 145.35 105.9 145.8 105.55 146.4 105.05 146.95 104.55 147.1 104.45 147.25 104.35 147.45 104.1 147.7 103.95 147.75 103.85 147.8 103.85 148.15 103.5 148.45 103.2 148.7 102.95 148.95 102.7 156.15 95.8 160.5 87.85 166.95 75.7 166.95 61 166.95 36.55 148.95 19.3 Z"/>

<path fill="#000000" stroke="none" d="
M 162.25 88.8
Q 168.95 76.2 168.95 61 168.95 35.75 150.35 17.85 131.75 0 105.45 0 79.15 0 60.55 17.85 41.95 35.75 41.95 61 41.95 79.6 52.1 94.25 53.35 96.05 54.75 97.8
L 54.8 97.85
Q 56.65 98.8 59.5 100.5 59.8 100.7 60.1 100.85 56.5 97.1 53.75 93.1 43.95 79 43.95 61 43.95 36.55 61.95 19.3 79.95 2 105.45 2 130.95 2 148.95 19.3 166.95 36.55 166.95 61 166.95 75.7 160.5 87.85 156.15 95.8 148.95 102.7 148.7 102.95 148.45 103.2
L 150.6 101.75
Q 151.4 101.2 152.95 100 154.35 98.95 155.45 98.4 155.65 98.25 155.85 98.2 159.55 93.7 162.25 88.8 Z"/>
</g>

<g id="mouth_0_Layer0_0_FILL">
<path fill="#FFFFFF" stroke="none" d="
M -31.05 7.05
L -30.55 14.1
Q -22.7 18.15 -13.2 19.8
L -13.05 13
Q -22.95 11.35 -31.05 7.05
M -12.75 -1.45
Q -23.5 -3.2 -32.2 -8.1
L -31.05 7.05
Q -22.95 11.35 -13.05 13
L -12.75 -1.45
M -46.15 -20.8
Q -49 -15.85 -49 -10.15 -49 2.7 -34.65 11.75 -32.65 13 -30.55 14.1
L -31.05 7.05
Q -32.9 6.05 -34.65 4.95 -42.65 -0.1 -48.65 -9.3 -42.65 -0.1 -34.65 4.95 -32.9 6.05 -31.05 7.05
L -32.2 -8.1
Q -33.45 -8.8 -34.65 -9.55 -42.65 -14.6 -46.15 -20.8
M 6.5 20.6
L 6.5 13.8
Q 3.35 14.05 0 14.05 -6.85 14.05 -13.05 13
L -13.2 19.8
Q -6.95 20.85 0 20.85 3.35 20.85 6.5 20.6
M 24.1 16.95
L 23.95 10.2
Q 15.95 13.05 6.5 13.8
L 6.5 20.6
Q 16 19.85 24.1 16.95
M 35 4.75
L 35.65 11.1
Q 48.65 2.5 49 -9.5 42.65 -0.2 35 4.75
M 35 4.75
Q 34.8 4.85 34.65 4.95 29.65 8.1 23.95 10.2
L 24.1 16.95
Q 29.7 14.9 34.65 11.75 35.15 11.45 35.65 11.1
L 35 4.75
M 23.7 -4.2
Q 15.75 -1.4 6.5 -0.7
L 6.5 13.8
Q 15.95 13.05 23.95 10.2
L 23.7 -4.2
M 33.6 -8.9
Q 28.95 -6.1 23.7 -4.2
L 23.95 10.2
Q 29.65 8.1 34.65 4.95 34.8 4.85 35 4.75
L 33.6 -8.9
M 34.65 -9.55
Q 34.15 -9.2 33.6 -8.9
L 35 4.75
Q 42.65 -0.2 49 -9.5 49 -9.65 49 -9.8 49 -9.95 49 -10.15 49 -15.85 46.2 -20.8 42.65 -14.6 34.65 -9.55
M 6.5 -0.7
Q 3.35 -0.45 0 -0.45 -6.7 -0.45 -12.75 -1.45
L -13.05 13
Q -6.85 14.05 0 14.05 3.35 14.05 6.5 13.8
L 6.5 -0.7 Z"/>
</g>

<g id="eye_0_Layer0_0_FILL">
<path fill="#FFFFFF" stroke="none" d="
M 10.4 -7.25
Q 6.1 -10.25 0 -10.25 -6.1 -10.25 -10.45 -7.25 -14.75 -4.25 -14.75 0 -14.75 4.25 -10.45 7.25 -6.1 10.25 0 10.25 6.1 10.25 10.4 7.25 14.75 4.25 14.75 0 14.75 -4.25 10.4 -7.25
M 6.9 5.95
Q 5.6 6.75 3.75 6.75 1.9 6.75 0.55 5.95 -0.75 5.15 -0.75 4 -0.75 2.85 0.55 2.05 1.9 1.25 3.75 1.25 5.6 1.25 6.9 2.05 8.25 2.85 8.25 4 8.25 5.15 6.9 5.95 Z"/>

<path fill="#000000" stroke="none" d="
M 3.75 6.75
Q 5.6 6.75 6.9 5.95 8.25 5.15 8.25 4 8.25 2.85 6.9 2.05 5.6 1.25 3.75 1.25 1.9 1.25 0.55 2.05 -0.75 2.85 -0.75 4 -0.75 5.15 0.55 5.95 1.9 6.75 3.75 6.75 Z"/>
</g>

<g id="Layer0_0_FILL">
<path fill="#65FF65" fill-opacity="0.8666666666666667" stroke="none" d="
M 213.75 108.35
Q 210.21328125 103.1744140625 207 100.85 202.0462890625 97.205078125 198.25 98.1 194.4 99 191.9 101.2 190.1 102.8 189.6 104.9 196.390234375 102.5876953125 201.15 102.3 205.60625 102.4560546875 213.75 108.35
M 112.5 162.85
Q 112.85 163.25 113.3 163.6 115.65 165.55 118.9 165.55 122.15 165.55 124.45 163.6 126.8 161.65 126.8 158.9 126.8 156.4 124.9 154.6 122.05 163 112.5 162.85
M 45.15 145.6
Q 44.7 145.3 44.2 145.05 41.4 143.9 38.25 144.8 35.15 145.75 33.5 148.25 31.8 150.8 32.6 153.4 33.3 155.8 35.6 157 36 148.15 45.15 145.6
M 21.35 97.2
Q 19.15 95.8 16.05 95.8 12.95 95.8 10.75 97.2 8.55 98.6 8.55 100.55 8.55 102.45 10.65 103.85 14.65 97.85 23.15 99 22.6 98 21.35 97.2
M 141.8 29.5
Q 134.05 14.45 136.1 13.3 138.15 12.15 128.75 8.85 119.35 5.5 109.7 5.5 100.05 5.5 93.25 8.65 88.7 10.75 87.2 13.5 118.1 5.6 141.8 29.5 Z"/>
</g>

<path id="Layer2_0_1_STROKES" stroke="#000000" stroke-width="2" stroke-linejoin="round" stroke-linecap="butt" fill="none" d="
M 59.5 95.35
Q 57.8 97.05 55.15 98.1 52.15 99.3 49.1 99.3 46.3 99.3 43.15 98.15 43.1 98.1 37.2 95.55 28.65 91.8 18.85 91.8 10.4 91.8 5.25 97.05 1 101.35 1 106.15 1 115.45 7.5 120.3 12.2 123.8 17.5 123.8 21.3 123.8 24.15 121.75 25.5 120.8 28.7 117.3 34.65 110.8 42.85 110.8 49.55 110.8 53.75 115.55 57.5 119.85 57.5 125.55 57.5 133.4 47.75 138.55 41.1 140.1 37.65 141.35 31.5 143.55 29 148.65 26.3 154.1 33.4 160.85 38.7 165.85 47.75 170.3 53.95 173.05 61.25 173.05 69.8 173.05 72 168.05 72.75 166.3 72.75 159.9 72.75 153.2 70 145.2 67.25 137.2 67.25 136.55 67.25 129.5 73.25 128.3 83.7 126.05 91.5 126.05 105.5 126.05 105.5 140.9 105.5 143.25 99.65 151 93.75 158.75 93.75 164.05 93.75 168.6 98.75 170.3 102.4 171.55 110.25 171.55 119.5 171.55 125.25 168.3 132.25 164.35 132.25 156.3 132.25 150.75 127.75 145.9 123.25 141.05 123.25 137.8 123.25 135.3 126.2 132.35 128.3 130.25 129.75 129.55 129.9 129.5 140.8 125.1 153.65 118.8 166.8 124.3 169.9 125.65 172.6 129.85 173.8 131.75 176.9 138.15 179.45 143.4 181.35 145.65 184.15 148.85 187.7 148.75 201.5 148.4 213.1 136.45 224.2 125 217.65 109.45 212.75 97.8 201.4 95.05 195.6 93.65 190.25 96.75 179.35 102.85 167.6 104.35 160.95 105.4 157.15 99.75 149.4 88.15 138.3 79.45 126.5 70.2 111.65 68.4 97.45 66.55 83.65 70.95 72.05 74.75 65.95 84.4 62.6 89.65 59 94.8
M 60.75 93.8
Q 60.2 94.65 59.5 95.35"/>

<path id="mouth_0_Layer0_0_1_STROKES" stroke="#000000" stroke-width="2" stroke-linejoin="miter" stroke-linecap="square" stroke-miterlimit="3" fill="none" d="
M 6.5 -0.7
Q 3.35 -0.45 0 -0.45 -6.7 -0.45 -12.75 -1.45
L -13.05 13
Q -6.85 14.05 0 14.05 3.35 14.05 6.5 13.8
L 6.5 -0.7
Q 15.75 -1.4 23.7 -4.2 28.95 -6.1 33.6 -8.9 34.15 -9.2 34.65 -9.55 42.65 -14.6 46.2 -20.8 49 -15.85 49 -10.15 49 -9.95 49 -9.8 49 -9.65 49 -9.5 48.65 2.5 35.65 11.1 35.15 11.45 34.65 11.75 29.7 14.9 24.1 16.95 16 19.85 6.5 20.6 3.35 20.85 0 20.85 -6.95 20.85 -13.2 19.8 -22.7 18.15 -30.55 14.1 -32.65 13 -34.65 11.75 -49 2.7 -49 -10.15 -49 -15.85 -46.15 -20.8 -42.65 -14.6 -34.65 -9.55 -33.45 -8.8 -32.2 -8.1 -23.5 -3.2 -12.75 -1.45
M 35 4.75
Q 34.8 4.85 34.65 4.95 29.65 8.1 23.95 10.2 15.95 13.05 6.5 13.8
M 23.7 -4.2
L 23.95 10.2
M -13.05 13
Q -22.95 11.35 -31.05 7.05 -32.9 6.05 -34.65 4.95 -42.65 -0.1 -48.65 -9.3"/>

<path id="mouth_0_Layer0_0_2_STROKES" stroke="#000000" stroke-width="2" stroke-linejoin="miter" stroke-linecap="butt" stroke-miterlimit="3" fill="none" d="
M 23.95 10.2
L 24.1 16.95
M 49 -9.5
Q 42.65 -0.2 35 4.75
L 35.65 11.1
M 6.5 13.8
L 6.5 20.6
M 33.6 -8.9
L 35 4.75
M -31.05 7.05
L -30.55 14.1
M -13.05 13
L -13.2 19.8
M -32.2 -8.1
L -31.05 7.05"/>

<path id="eye_0_Layer0_0_1_STROKES" stroke="#000000" stroke-width="2" stroke-linejoin="round" stroke-linecap="butt" fill="none" d="
M 14.75 0
Q 14.75 4.25 10.4 7.25 6.1 10.25 0 10.25 -6.1 10.25 -10.45 7.25 -14.75 4.25 -14.75 0 -14.75 -4.25 -10.45 -7.25 -6.1 -10.25 0 -10.25 6.1 -10.25 10.4 -7.25 14.75 -4.25 14.75 0 Z"/>

<path id="eye_0_Layer0_0_2_STROKES" stroke="#FFFFFF" stroke-width="2" stroke-linejoin="round" stroke-linecap="butt" fill="none" d="
M 8.25 4
Q 8.25 5.15 6.9 5.95 5.6 6.75 3.75 6.75 1.9 6.75 0.55 5.95 -0.75 5.15 -0.75 4 -0.75 2.85 0.55 2.05 1.9 1.25 3.75 1.25 5.6 1.25 6.9 2.05 8.25 2.85 8.25 4 Z"/>
</defs>

<g transform="matrix( 1, 0, 0, 1, 0,0) ">
<use xlink:href="#Layer2_0_FILL"/>

<use xlink:href="#Layer2_0_1_STROKES"/>
</g>

<g transform="matrix( 1, 0, 0, 1, 0,0) ">
<use xlink:href="#Layer1_0_FILL"/>
</g>

<g transform="matrix( 1, 0, 0, 1, 104.7,84.15) ">
<g transform="matrix( 1, 0, 0, 1, 0,0) ">
<use xlink:href="#mouth_0_Layer0_0_FILL"/>

<use xlink:href="#mouth_0_Layer0_0_1_STROKES"/>

<use xlink:href="#mouth_0_Layer0_0_2_STROKES"/>
</g>
</g>

<g transform="matrix( 1, 0, 0, 1, 84.2,47.1) ">
<g transform="matrix( 1, 0, 0, 1, 0,0) ">
<use xlink:href="#eye_0_Layer0_0_FILL"/>

<use xlink:href="#eye_0_Layer0_0_1_STROKES"/>

<use xlink:href="#eye_0_Layer0_0_2_STROKES"/>
</g>
</g>

<g transform="matrix( -1, 0, 0, 1, 120.65,47.1) ">
<g transform="matrix( 1, 0, 0, 1, 0,0) ">
<use xlink:href="#eye_0_Layer0_0_FILL"/>

<use xlink:href="#eye_0_Layer0_0_1_STROKES"/>

<use xlink:href="#eye_0_Layer0_0_2_STROKES"/>
</g>
</g>

<g transform="matrix( 1, 0, 0, 1, 0,0) ">
<use xlink:href="#Layer0_0_FILL"/>
</g>
</svg>
